<?xml version="1.0" standalone="no"?>
<!DOCTYPE svg PUBLIC "-//W3C//DTD SVG 20010904//EN"
 "http://www.w3.org/TR/2001/REC-SVG-20010904/DTD/svg10.dtd">
<svg version="1.0" xmlns="http://www.w3.org/2000/svg"
 width="990.000000pt" height="933.000000pt" viewBox="0 0 990.000000 933.000000"
 preserveAspectRatio="xMidYMid meet">

<g transform="translate(0.000000,933.000000) scale(0.100000,-0.100000)"
fill="#000000" stroke="none">
<path d="M2765 8883 c-39 -3 -63 -9 -68 -19 -4 -8 -21 -14 -38 -14 -17 0 -32
-6 -35 -14 -3 -8 -18 -18 -34 -21 -16 -3 -31 -13 -34 -21 -3 -8 -12 -14 -20
-14 -7 0 -16 -9 -19 -20 -3 -11 -12 -20 -21 -20 -9 0 -16 -7 -16 -15 0 -8 -6
-15 -14 -15 -8 0 -17 -15 -20 -35 -4 -21 -13 -35 -21 -35 -8 0 -15 -9 -15 -20
0 -11 -7 -23 -15 -26 -8 -4 -15 -15 -15 -25 0 -11 -9 -27 -20 -36 -11 -10 -20
-28 -20 -41 0 -12 -7 -25 -15 -28 -8 -4 -15 -12 -15 -19 0 -7 -9 -24 -20 -38
-11 -14 -20 -32 -20 -41 0 -9 -6 -16 -14 -16 -8 0 -17 -15 -20 -35 -4 -21 -13
-35 -21 -35 -10 0 -15 -11 -15 -31 0 -22 -5 -32 -20 -36 -13 -4 -20 -14 -20
-29 0 -14 -7 -27 -15 -30 -8 -4 -15 -12 -15 -20 0 -8 -9 -22 -20 -31 -11 -10
-20 -30 -20 -45 0 -18 -5 -28 -14 -28 -8 0 -17 -14 -21 -31 -4 -17 -13 -33
-21 -36 -8 -3 -14 -13 -14 -23 0 -10 -6 -23 -14 -29 -8 -7 -17 -23 -20 -36 -4
-14 -13 -25 -21 -25 -10 0 -15 -10 -15 -29 0 -16 -6 -31 -14 -34 -8 -3 -17
-19 -21 -35 -3 -17 -13 -33 -21 -36 -8 -3 -14 -14 -14 -25 0 -10 -9 -21 -20
-24 -14 -3 -20 -14 -20 -31 0 -15 -6 -29 -14 -32 -8 -3 -18 -19 -21 -35 -4
-16 -10 -29 -15 -29 -5 0 -20 -24 -34 -53 -14 -30 -32 -60 -41 -67 -8 -7 -15
-23 -15 -37 0 -13 -6 -26 -14 -29 -8 -3 -18 -19 -21 -35 -4 -16 -11 -29 -16
-29 -6 0 -15 -13 -20 -30 -6 -16 -15 -30 -20 -30 -5 0 -9 -9 -9 -20 0 -10 -9
-24 -20 -30 -13 -7 -20 -21 -20 -40 0 -23 -4 -30 -20 -30 -16 0 -20 -7 -20
-30 0 -18 -6 -33 -15 -36 -8 -4 -15 -12 -15 -19 0 -6 -9 -22 -20 -35 -11 -13
-20 -31 -20 -42 0 -10 -7 -18 -15 -18 -8 0 -17 -14 -21 -35 -3 -20 -12 -35
-20 -35 -8 0 -14 -6 -14 -14 0 -16 -37 -83 -57 -104 -7 -7 -13 -24 -13 -38 0
-14 -6 -24 -15 -24 -8 0 -17 -14 -21 -35 -3 -20 -12 -35 -20 -35 -8 0 -14 -8
-14 -18 0 -11 -9 -27 -20 -37 -11 -10 -20 -26 -20 -37 0 -10 -7 -18 -15 -18
-8 0 -17 -14 -21 -35 -3 -20 -12 -35 -20 -35 -9 0 -14 -11 -14 -30 0 -16 -6
-33 -12 -37 -20 -13 -58 -71 -58 -88 0 -9 -6 -18 -14 -21 -8 -3 -18 -18 -21
-34 -3 -16 -13 -31 -21 -34 -8 -3 -14 -12 -14 -21 0 -24 -43 -95 -57 -95 -8 0
-13 -13 -13 -31 0 -22 -5 -32 -20 -36 -14 -4 -20 -14 -20 -34 0 -18 -5 -29
-14 -29 -8 0 -17 -14 -21 -31 -4 -17 -13 -33 -21 -36 -8 -3 -14 -14 -14 -24 0
-11 -6 -22 -14 -25 -8 -3 -18 -19 -21 -36 -4 -16 -13 -32 -21 -35 -8 -3 -14
-16 -14 -29 0 -14 -7 -27 -15 -30 -8 -4 -15 -12 -15 -19 0 -7 -9 -24 -20 -38
-11 -14 -20 -32 -20 -41 0 -9 -6 -16 -14 -16 -8 0 -17 -15 -20 -35 -4 -21 -13
-35 -21 -35 -8 0 -15 -9 -15 -19 0 -30 -11 -51 -26 -51 -8 0 -14 -10 -14 -25
0 -15 -6 -25 -14 -25 -8 0 -17 -13 -21 -29 -3 -16 -13 -32 -21 -35 -8 -3 -14
-17 -14 -31 0 -14 -7 -28 -15 -31 -8 -4 -15 -12 -15 -19 0 -7 -9 -24 -20 -38
-11 -14 -20 -32 -20 -41 0 -9 -6 -16 -14 -16 -8 0 -17 -15 -20 -34 -4 -19 -13
-37 -21 -40 -8 -3 -15 -17 -15 -30 0 -14 -6 -29 -13 -33 -7 -4 -18 -20 -24
-35 -7 -16 -17 -28 -23 -28 -5 0 -10 -17 -10 -39 0 -30 -4 -40 -20 -44 -19 -5
-20 -14 -20 -141 0 -114 3 -136 16 -144 10 -5 18 -28 21 -55 4 -30 10 -47 19
-47 8 0 16 -11 20 -25 3 -13 12 -29 20 -36 8 -6 14 -20 14 -30 0 -11 6 -19 14
-19 8 0 17 -15 20 -35 4 -21 13 -35 21 -35 8 0 15 -8 15 -19 0 -10 9 -30 20
-44 11 -14 20 -28 20 -32 0 -3 7 -13 15 -21 8 -9 15 -26 15 -40 0 -14 6 -24
14 -24 8 0 17 -14 21 -31 4 -17 13 -33 21 -36 8 -3 14 -13 14 -23 0 -9 9 -25
20 -35 11 -10 20 -26 20 -37 0 -10 7 -18 15 -18 8 0 17 -14 21 -35 3 -20 12
-35 20 -35 8 0 14 -10 14 -24 0 -13 7 -29 15 -36 9 -7 27 -37 41 -67 14 -29
29 -53 34 -53 5 0 11 -13 15 -29 3 -16 13 -32 21 -35 8 -3 14 -16 14 -29 0
-13 9 -32 20 -42 11 -10 20 -24 20 -30 0 -7 7 -18 15 -25 8 -7 15 -21 15 -31
0 -10 9 -23 20 -29 12 -6 20 -21 20 -35 0 -15 6 -25 14 -25 15 0 26 -21 26
-51 0 -10 7 -19 15 -19 8 0 15 -9 15 -20 0 -11 6 -23 14 -26 8 -3 18 -19 21
-36 4 -16 13 -32 21 -35 8 -3 14 -15 14 -27 0 -12 9 -29 20 -39 11 -9 20 -23
20 -31 0 -7 7 -19 15 -26 8 -7 15 -21 15 -31 0 -11 6 -19 14 -19 8 0 17 -15
20 -35 4 -21 13 -35 21 -35 8 0 15 -9 15 -19 0 -30 11 -51 26 -51 8 0 14 -10
14 -25 0 -14 5 -25 10 -25 6 0 16 -12 23 -28 6 -15 17 -31 24 -35 7 -4 13 -19
13 -33 0 -13 7 -27 15 -30 8 -3 17 -21 21 -40 3 -19 12 -34 20 -34 8 0 14 -7
14 -16 0 -9 9 -27 20 -41 11 -14 20 -31 20 -38 0 -7 7 -15 15 -19 8 -3 15 -16
15 -28 0 -13 9 -31 20 -41 11 -9 20 -26 20 -37 0 -11 7 -20 15 -20 9 0 15 -9
15 -25 0 -15 6 -25 14 -25 15 0 26 -21 26 -51 0 -10 7 -19 15 -19 8 0 17 -14
21 -35 3 -20 12 -35 20 -35 8 0 14 -7 14 -16 0 -9 9 -27 20 -41 11 -14 20 -31
20 -38 0 -7 7 -15 15 -19 8 -3 15 -16 15 -30 0 -13 6 -26 14 -29 8 -3 17 -19
21 -35 3 -17 13 -33 21 -36 8 -3 14 -14 14 -25 0 -10 6 -21 14 -24 8 -3 17
-19 21 -36 4 -17 13 -31 21 -31 9 0 14 -11 14 -29 0 -20 6 -30 20 -34 15 -4
20 -14 20 -36 0 -19 5 -31 13 -31 7 0 25 -27 40 -60 16 -33 32 -60 37 -60 4 0
11 -13 15 -29 3 -16 13 -32 21 -35 8 -3 14 -12 14 -20 0 -8 16 -38 35 -67 19
-30 35 -62 35 -71 0 -10 6 -18 14 -18 8 0 17 -15 20 -35 4 -21 13 -35 21 -35
8 0 15 -8 15 -18 0 -11 9 -27 20 -37 11 -10 20 -26 20 -35 0 -10 6 -20 14 -23
8 -3 17 -19 21 -36 4 -17 13 -31 21 -31 8 0 14 -10 14 -24 0 -14 6 -31 13 -38
20 -21 57 -88 57 -104 0 -8 6 -14 14 -14 8 0 17 -15 20 -35 4 -21 13 -35 21
-35 9 0 15 -10 15 -22 0 -13 16 -40 35 -61 19 -21 35 -42 35 -46 0 -5 9 -11
20 -14 11 -3 20 -12 20 -21 0 -9 5 -16 10 -16 6 0 18 -8 29 -18 36 -33 65 -52
81 -52 9 0 22 -6 28 -12 35 -35 111 -36 2311 -37 2202 -1 2284 0 2304 35 4 8
21 14 38 14 17 0 32 6 35 14 3 8 19 18 35 21 16 4 29 12 29 20 0 7 9 15 20 18
11 3 20 12 20 21 0 9 6 16 13 16 12 0 20 12 52 78 8 17 19 32 24 32 5 0 12 14
16 30 4 17 11 30 16 30 5 0 15 16 23 35 8 19 20 35 25 35 6 0 11 9 11 20 0 11
7 23 15 26 8 3 17 21 21 40 3 19 12 34 20 34 8 0 14 10 14 25 0 14 7 28 15 31
8 4 15 12 15 19 0 7 9 24 20 38 11 14 20 32 20 40 0 8 6 17 14 20 8 3 17 19
21 35 3 17 13 33 21 36 8 3 14 17 14 31 0 14 7 28 15 31 8 4 15 12 15 19 0 7
9 24 20 38 11 14 20 32 20 40 0 8 9 17 20 20 15 4 20 14 20 36 0 20 5 31 15
31 8 0 17 14 21 35 3 20 12 35 20 35 8 0 14 9 14 20 0 11 6 20 14 20 8 0 17
15 20 34 4 19 13 37 21 40 8 3 15 17 15 31 0 14 7 28 15 31 8 4 15 12 15 19 0
7 9 24 20 38 11 14 20 32 20 41 0 9 7 16 15 16 8 0 17 14 21 35 3 20 12 35 20
35 9 0 14 11 14 31 0 22 5 32 20 36 13 3 20 14 20 29 0 13 5 24 11 24 5 0 15
13 20 29 6 16 17 32 25 35 8 3 14 17 14 31 0 14 6 28 14 31 8 3 18 19 21 36 4
16 13 32 21 35 8 3 14 13 14 23 0 10 6 20 14 23 7 3 16 19 19 36 4 18 13 31
22 31 9 0 15 9 15 25 0 14 7 28 15 31 8 4 15 12 15 19 0 7 9 24 20 38 11 14
20 31 20 39 0 7 9 19 20 26 11 7 20 23 20 37 0 14 6 28 14 31 8 3 18 19 21 35
4 16 10 29 15 29 5 0 20 24 34 54 14 29 32 56 41 60 9 3 15 18 15 36 0 19 5
30 14 30 8 0 17 15 20 35 4 19 11 35 16 35 9 0 31 36 51 83 6 15 17 27 25 27
9 0 14 12 14 35 0 28 4 35 20 35 16 0 20 7 20 30 0 18 6 33 15 36 8 4 15 11
15 18 0 6 9 19 20 29 11 9 20 28 20 42 0 15 6 25 15 25 8 0 17 14 21 35 3 20
12 35 20 35 8 0 14 8 14 19 0 10 7 24 15 31 8 7 15 18 15 25 0 6 9 22 20 35
11 13 20 34 20 47 0 13 6 23 14 23 8 0 17 14 21 31 4 17 13 33 21 36 8 3 14
13 14 23 0 9 9 25 20 35 11 10 20 26 20 37 0 10 6 18 14 18 8 0 17 14 21 31 4
17 13 33 21 36 8 3 14 12 14 20 0 16 35 79 57 101 7 7 13 22 13 33 0 11 6 22
14 25 8 3 18 19 21 35 4 16 10 29 15 29 5 0 20 25 35 56 14 30 33 58 41 61 8
3 14 18 14 35 0 21 6 31 20 35 14 4 20 14 20 34 0 18 5 29 14 29 8 0 17 13 21
29 3 16 13 32 21 35 8 3 14 14 14 25 0 10 6 21 14 24 8 3 17 19 21 36 3 16 13
35 21 42 8 6 14 29 14 51 0 21 7 50 16 64 13 19 16 41 12 100 -3 41 -10 80
-17 87 -6 6 -11 28 -11 49 0 21 -4 38 -8 38 -5 0 -23 32 -41 70 -17 39 -36 70
-41 70 -5 0 -11 13 -15 29 -3 16 -13 32 -21 35 -8 3 -14 17 -14 31 0 14 -9 30
-20 37 -11 7 -20 21 -20 30 0 10 -6 18 -14 18 -8 0 -17 14 -21 31 -4 17 -13
33 -21 36 -8 3 -14 18 -14 34 0 19 -5 29 -15 29 -9 0 -18 13 -22 31 -3 17 -12
33 -19 36 -8 3 -14 13 -14 23 0 10 -6 20 -14 23 -8 3 -17 19 -21 35 -3 17 -13
33 -21 36 -8 3 -14 17 -14 31 0 14 -6 28 -14 31 -8 3 -19 19 -25 35 -5 16 -15
29 -20 29 -6 0 -11 11 -11 24 0 15 -7 26 -20 29 -15 4 -20 14 -20 36 0 20 -5
31 -14 31 -8 0 -17 15 -20 35 -4 21 -13 35 -21 35 -8 0 -15 7 -15 16 0 9 -9
27 -20 41 -11 14 -20 31 -20 38 0 7 -7 15 -15 19 -8 3 -15 17 -15 31 0 14 -7
28 -15 31 -8 3 -17 21 -21 40 -3 19 -12 34 -20 34 -8 0 -14 9 -14 20 0 11 -6
20 -14 20 -8 0 -17 15 -20 35 -4 21 -13 35 -21 35 -10 0 -15 11 -15 31 0 22
-5 32 -20 36 -14 4 -20 14 -20 34 0 19 -5 29 -15 29 -8 0 -17 11 -21 24 -3 14
-12 27 -20 30 -8 3 -14 17 -14 31 0 14 -6 28 -14 31 -8 3 -18 19 -21 36 -4 16
-13 32 -21 35 -8 3 -14 12 -14 20 0 8 -9 26 -20 40 -11 14 -20 31 -20 38 0 7
-7 15 -15 19 -8 3 -15 17 -15 31 0 15 -6 25 -14 25 -8 0 -17 15 -20 34 -4 19
-13 37 -21 40 -8 3 -15 15 -15 26 0 11 -5 20 -11 20 -5 0 -17 16 -25 35 -8 19
-18 35 -23 35 -5 0 -12 13 -16 29 -3 16 -13 32 -21 35 -8 3 -14 17 -14 30 0
14 -6 29 -13 33 -18 11 -57 77 -57 96 0 8 -6 17 -14 20 -8 3 -17 19 -21 35 -3
17 -13 33 -21 36 -8 3 -14 12 -14 21 0 17 -38 75 -57 88 -7 4 -13 21 -13 37 0
23 -5 30 -20 30 -16 0 -20 7 -20 35 0 24 -5 35 -15 35 -8 0 -17 11 -21 25 -3
13 -12 29 -20 36 -8 6 -14 20 -14 30 0 11 -6 19 -14 19 -8 0 -17 15 -20 35 -4
21 -13 35 -21 35 -9 0 -15 10 -15 24 0 14 -6 31 -13 38 -22 23 -57 85 -57 102
0 9 -6 16 -14 16 -8 0 -17 15 -20 35 -4 21 -13 35 -21 35 -9 0 -15 10 -15 25
0 14 -9 30 -20 37 -11 7 -20 18 -20 25 0 7 -9 22 -20 33 -11 11 -20 29 -20 40
0 11 -7 20 -15 20 -10 0 -15 10 -15 30 0 19 -7 33 -20 40 -11 6 -20 19 -20 29
0 10 -7 24 -15 31 -8 7 -15 19 -15 27 0 7 -6 16 -14 19 -8 3 -18 18 -21 34 -3
16 -13 31 -21 34 -8 3 -14 18 -14 35 0 20 -7 34 -20 41 -11 6 -20 17 -20 24 0
8 -7 19 -15 26 -8 7 -15 21 -15 31 0 10 -9 23 -20 29 -11 6 -20 21 -20 34 0
13 -6 26 -14 29 -8 3 -17 19 -21 36 -4 17 -13 31 -21 31 -8 0 -14 9 -14 20 0
11 -7 23 -15 26 -8 4 -15 11 -15 16 0 12 -74 88 -86 88 -5 0 -17 8 -26 18 -31
34 -62 52 -89 52 -15 0 -35 8 -45 18 -17 16 -136 17 -2223 18 -1213 0 -2233
-1 -2266 -3z m2810 -513 c0 -11 -14 -16 -52 -18 -37 -2 -53 -7 -53 -17 0 -9
-18 -16 -55 -20 -37 -5 -55 -12 -55 -21 0 -10 -14 -14 -49 -14 -31 0 -53 -5
-61 -15 -7 -8 -34 -18 -61 -21 -27 -4 -54 -13 -60 -20 -6 -8 -28 -14 -48 -14
-20 0 -49 -9 -66 -20 -17 -11 -47 -20 -68 -20 -24 0 -40 -5 -43 -15 -4 -10
-20 -15 -50 -15 -30 0 -46 -5 -50 -14 -3 -9 -27 -17 -59 -21 -32 -4 -56 -13
-59 -21 -3 -9 -21 -14 -48 -14 -31 0 -48 -6 -61 -20 -12 -14 -29 -20 -58 -20
-26 0 -46 -6 -53 -15 -6 -9 -35 -18 -66 -22 -30 -3 -59 -12 -65 -18 -5 -7 -29
-15 -52 -18 -23 -3 -50 -12 -58 -21 -10 -10 -33 -16 -61 -16 -32 0 -44 -4 -44
-15 0 -11 -12 -15 -44 -15 -25 0 -48 -6 -55 -14 -7 -8 -34 -17 -61 -21 -27 -4
-51 -13 -54 -21 -4 -9 -21 -14 -55 -14 -34 0 -51 -5 -54 -15 -4 -8 -26 -17
-56 -21 -28 -4 -52 -12 -55 -20 -4 -9 -22 -14 -56 -14 -38 0 -54 -5 -67 -20
-25 -29 -43 -25 -50 11 -3 17 -12 33 -19 36 -8 3 -14 13 -14 23 0 9 -9 25 -20
35 -11 10 -20 26 -20 37 0 10 -6 18 -14 18 -8 0 -17 15 -20 35 -4 21 -13 35
-21 35 -10 0 -15 10 -15 28 0 15 -9 35 -20 45 -11 9 -20 26 -20 37 0 11 -7 23
-15 26 -8 4 -15 13 -15 21 0 8 -9 26 -20 40 -11 14 -20 31 -20 38 0 7 -7 15
-15 19 -8 3 -15 17 -15 31 0 14 -7 28 -15 31 -8 3 -17 21 -21 40 -3 19 -12 34
-20 34 -8 0 -14 9 -14 20 0 20 5 20 1208 18 1065 -3 1207 -5 1207 -18z m1465
-109 c0 -10 7 -26 15 -37 8 -11 14 -42 15 -76 0 -37 5 -62 15 -72 10 -9 18
-43 22 -83 3 -37 11 -74 17 -82 6 -7 13 -45 17 -83 3 -39 11 -73 18 -77 6 -4
14 -36 17 -72 4 -35 13 -73 20 -84 8 -11 14 -44 14 -75 0 -34 6 -64 15 -77 9
-13 18 -52 22 -89 4 -41 11 -68 20 -71 9 -4 13 -24 13 -67 0 -45 6 -67 20 -86
15 -19 20 -41 20 -89 0 -45 4 -67 15 -75 9 -7 17 -36 21 -76 4 -36 12 -74 19
-85 7 -11 14 -49 17 -83 2 -35 9 -67 15 -70 7 -4 15 -36 19 -71 4 -36 13 -76
20 -90 8 -14 14 -49 14 -76 0 -29 7 -60 15 -72 8 -12 18 -50 22 -84 3 -35 12
-74 20 -89 7 -14 13 -47 13 -74 0 -32 6 -56 17 -68 11 -13 19 -42 21 -86 3
-43 9 -70 18 -75 10 -5 14 -28 14 -71 0 -48 5 -69 20 -89 15 -19 20 -40 20
-86 0 -44 4 -62 15 -69 11 -6 18 -31 22 -80 6 -68 5 -72 -14 -72 -12 0 -23 6
-26 14 -3 8 -20 17 -37 21 -17 4 -34 13 -37 21 -3 8 -16 14 -29 14 -13 0 -28
9 -34 20 -6 11 -19 20 -29 20 -10 0 -24 7 -31 15 -7 8 -18 15 -25 15 -6 0 -20
9 -30 20 -10 11 -29 20 -42 20 -13 0 -23 6 -23 14 0 8 -15 17 -35 20 -19 4
-35 11 -35 15 0 5 -24 21 -52 36 -29 15 -60 33 -69 41 -8 8 -25 14 -37 14 -13
0 -22 6 -22 15 0 8 -14 17 -35 21 -20 3 -35 12 -35 20 0 8 -8 14 -18 14 -11 0
-27 9 -37 20 -10 11 -27 20 -37 20 -10 0 -21 6 -24 14 -3 8 -18 18 -34 21 -16
3 -31 13 -34 21 -3 8 -17 14 -31 14 -14 0 -28 7 -31 15 -4 8 -12 15 -19 15 -7
0 -24 9 -38 20 -14 11 -32 20 -41 20 -9 0 -16 6 -16 14 0 8 -15 17 -34 20 -19
4 -37 13 -40 21 -3 8 -17 15 -30 15 -14 0 -29 6 -33 13 -4 7 -20 18 -35 24
-16 7 -28 17 -28 23 0 5 -11 10 -25 10 -15 0 -25 6 -25 14 0 15 -21 26 -51 26
-10 0 -19 7 -19 15 0 8 -14 17 -35 21 -20 3 -35 12 -35 20 0 8 -8 14 -19 14
-10 0 -24 7 -31 15 -7 8 -18 15 -25 15 -6 0 -22 9 -35 20 -13 11 -32 20 -42
20 -10 0 -21 7 -24 15 -3 8 -21 17 -40 21 -19 3 -34 12 -34 20 0 8 -8 14 -19
14 -10 0 -24 6 -30 14 -7 8 -23 17 -36 20 -14 4 -25 13 -25 21 0 10 -10 15
-31 15 -22 0 -32 5 -36 20 -4 14 -14 20 -34 20 -19 0 -29 5 -29 15 0 8 -8 15
-19 15 -10 0 -30 9 -44 20 -14 11 -32 20 -41 20 -9 0 -16 6 -16 14 0 8 -14 17
-31 21 -17 4 -33 13 -36 21 -3 8 -16 14 -29 14 -14 0 -27 7 -30 15 -4 8 -12
15 -19 15 -7 0 -24 9 -38 20 -14 11 -32 20 -40 20 -8 0 -17 6 -20 14 -3 8 -20
17 -37 21 -17 4 -34 13 -37 21 -3 8 -16 14 -29 14 -13 0 -28 9 -34 20 -6 11
-19 20 -29 20 -10 0 -24 7 -31 15 -7 8 -18 15 -25 15 -6 0 -20 9 -30 20 -10
11 -29 20 -42 20 -13 0 -23 6 -23 14 0 8 -15 17 -35 20 -19 4 -35 11 -35 15 0
5 -24 21 -52 36 -29 15 -60 33 -69 41 -8 8 -25 14 -37 14 -13 0 -22 6 -22 15
0 8 -14 17 -35 21 -20 3 -35 12 -35 20 0 8 -8 14 -18 14 -11 0 -27 9 -37 20
-10 11 -27 20 -37 20 -10 0 -21 6 -24 14 -3 8 -18 18 -34 21 -16 3 -31 13 -34
21 -3 8 -17 14 -31 14 -14 0 -28 7 -31 15 -4 8 -12 15 -19 15 -7 0 -24 9 -38
20 -14 11 -32 20 -41 20 -9 0 -16 6 -16 14 0 8 -15 17 -34 20 -19 4 -37 13
-40 21 -3 8 -17 15 -30 15 -14 0 -29 6 -33 13 -4 7 -20 18 -35 24 -27 12 -27
12 -10 43 15 26 22 30 63 30 31 0 49 5 52 14 3 8 27 18 54 22 26 4 53 13 61
20 7 8 33 14 57 14 27 0 50 6 60 16 9 9 37 19 61 22 25 2 48 11 51 18 3 9 21
14 48 14 26 0 50 6 59 15 8 8 36 18 63 22 26 3 52 12 56 20 5 8 26 13 51 13
29 0 46 5 49 14 4 9 28 17 61 21 38 5 56 12 56 21 0 10 14 14 48 14 36 0 50 5
60 20 10 16 23 20 65 20 40 0 57 5 70 20 12 14 29 20 57 20 27 0 43 5 46 15 4
10 20 15 50 15 30 0 46 5 50 14 3 9 27 17 59 21 32 4 56 13 59 21 4 9 21 14
51 14 30 0 47 5 51 14 3 8 27 17 57 21 29 4 55 12 59 18 3 5 31 13 62 18 31 4
63 14 72 23 9 9 32 16 55 16 26 0 42 5 45 15 4 10 20 15 50 15 33 0 47 5 56
20 10 15 24 20 61 20 32 0 49 5 53 14 3 8 27 17 55 21 29 4 53 13 56 21 3 9
21 14 53 14 32 0 50 5 53 14 3 8 27 18 54 22 26 4 53 13 61 20 7 8 33 14 57
14 27 0 50 6 60 16 8 9 35 18 58 21 23 3 49 11 57 19 15 12 83 23 108 16 6 -2
12 -12 12 -21z m-4310 -176 c0 -8 6 -15 14 -15 15 0 26 -21 26 -51 0 -10 7
-19 15 -19 8 0 15 -8 15 -18 0 -11 9 -27 20 -37 11 -10 20 -26 20 -37 0 -10 6
-18 14 -18 8 0 17 -15 20 -35 4 -21 13 -35 21 -35 10 0 15 -11 15 -35 0 -23 5
-35 14 -35 15 0 26 -21 26 -51 0 -10 7 -19 15 -19 8 0 15 -7 15 -16 0 -9 9
-27 20 -41 11 -14 20 -31 20 -38 0 -7 7 -15 15 -19 8 -3 15 -17 15 -31 0 -14
7 -28 15 -31 27 -11 18 -53 -15 -72 -16 -9 -30 -23 -30 -29 0 -7 -6 -13 -14
-13 -8 0 -18 -9 -21 -20 -3 -11 -13 -20 -21 -20 -8 0 -14 -7 -14 -15 0 -8 -6
-15 -13 -15 -6 0 -25 -16 -41 -35 -16 -19 -35 -35 -43 -35 -7 0 -13 -6 -13
-14 0 -8 -9 -18 -20 -21 -11 -3 -20 -13 -20 -21 0 -8 -6 -14 -12 -14 -16 0
-58 -44 -58 -59 0 -6 -9 -11 -20 -11 -11 0 -20 -4 -20 -9 0 -17 -121 -131
-146 -137 -13 -3 -24 -10 -24 -15 0 -11 -49 -59 -60 -59 -6 0 -10 -7 -10 -15
0 -8 -5 -15 -11 -15 -14 0 -59 -47 -59 -61 0 -5 -7 -9 -16 -9 -9 0 -18 -9 -21
-20 -3 -11 -10 -20 -16 -20 -5 0 -32 -22 -58 -50 -26 -27 -53 -50 -58 -50 -6
0 -11 -7 -11 -15 0 -9 -8 -19 -17 -22 -10 -4 -39 -28 -66 -55 -27 -26 -52 -48
-56 -48 -13 0 -71 -56 -71 -68 0 -7 -6 -12 -14 -12 -8 0 -18 -9 -21 -20 -3
-11 -12 -20 -20 -20 -7 0 -15 -7 -19 -15 -3 -8 -12 -15 -20 -15 -7 0 -16 -9
-19 -20 -3 -11 -12 -20 -21 -20 -9 0 -16 -7 -16 -15 0 -8 -4 -15 -10 -15 -13
0 -130 -115 -130 -129 0 -6 -9 -11 -20 -11 -11 0 -20 -4 -20 -9 0 -20 -83 -93
-108 -94 -30 -2 -41 18 -12 26 11 3 20 13 20 25 0 11 7 25 15 32 8 7 15 19 15
26 0 8 9 22 20 31 11 10 20 28 20 41 0 12 6 25 14 28 8 3 18 19 21 35 4 16 10
29 15 29 5 0 20 24 34 54 14 29 32 56 41 60 9 3 15 18 15 35 0 16 6 31 14 34
8 3 17 19 21 36 4 17 13 31 21 31 8 0 14 8 14 18 0 10 9 25 20 35 11 9 20 26
20 37 0 11 6 20 14 20 8 0 17 15 20 35 4 21 13 35 21 35 8 0 15 7 15 15 0 19
38 90 56 106 8 6 14 22 14 35 0 14 6 24 15 24 8 0 17 14 21 35 3 20 12 35 20
35 8 0 14 8 14 19 0 10 6 24 14 30 8 7 17 23 20 36 4 14 13 25 21 25 10 0 15
11 15 34 0 25 5 35 20 39 14 3 20 14 20 31 0 15 6 29 14 32 8 3 20 18 26 32
19 47 41 82 50 82 5 0 12 16 16 35 3 20 12 35 20 35 8 0 14 7 14 16 0 20 39
86 57 97 7 4 13 19 13 33 0 13 6 27 14 30 8 3 18 19 21 35 4 16 13 29 21 29 8
0 14 8 14 19 0 10 9 30 20 44 11 14 20 32 20 41 0 9 7 16 15 16 8 0 17 14 21
35 3 20 12 35 20 35 8 0 14 10 14 25 0 13 6 28 13 32 7 4 19 23 26 41 8 17 17
32 22 32 5 0 9 9 9 19 0 10 6 21 14 24 8 3 17 19 21 36 7 31 35 44 35 16z
m883 -945 c4 0 7 -7 7 -15 0 -10 10 -15 31 -15 22 0 32 -5 36 -20 3 -11 14
-20 25 -20 17 0 64 -28 96 -57 7 -7 24 -13 38 -13 14 0 24 -6 24 -15 0 -8 14
-17 35 -21 20 -3 35 -12 35 -20 0 -8 8 -14 19 -14 10 0 24 -7 31 -15 7 -8 18
-15 25 -15 6 0 22 -9 35 -20 13 -11 34 -20 47 -20 13 0 23 -6 23 -15 0 -8 14
-17 35 -21 20 -3 35 -12 35 -20 0 -8 8 -14 18 -14 11 0 27 -9 37 -20 10 -11
26 -20 37 -20 10 0 18 -7 18 -15 0 -8 14 -17 35 -21 20 -3 35 -12 35 -20 0 -9
11 -14 30 -14 18 0 33 -6 36 -15 4 -8 11 -15 18 -15 6 0 22 -9 36 -20 14 -11
33 -20 43 -20 9 0 17 -6 17 -14 0 -8 14 -17 31 -21 17 -4 33 -13 36 -21 3 -8
18 -14 34 -14 19 0 29 -5 29 -15 0 -8 8 -15 18 -15 11 0 27 -9 37 -20 10 -11
28 -20 40 -20 14 0 25 -8 28 -20 3 -14 14 -20 31 -20 15 0 29 -6 32 -14 3 -8
19 -18 35 -21 16 -4 29 -10 29 -15 0 -5 24 -20 53 -34 30 -14 60 -32 67 -41 7
-8 23 -15 37 -15 13 0 26 -6 29 -14 3 -8 19 -18 35 -21 16 -4 29 -11 29 -16 0
-6 14 -15 30 -20 17 -6 30 -15 30 -20 0 -5 9 -9 20 -9 11 0 25 -9 32 -20 8
-12 24 -20 39 -20 18 0 28 -6 32 -20 4 -15 14 -20 36 -20 17 0 31 -4 31 -8 0
-12 79 -62 96 -62 8 0 17 -6 20 -14 3 -8 18 -18 34 -21 16 -3 31 -13 34 -21 3
-8 17 -14 31 -14 14 0 28 -7 31 -15 4 -8 12 -15 19 -15 7 0 24 -9 38 -20 14
-11 32 -20 40 -20 8 0 17 -6 20 -14 3 -8 19 -17 36 -21 17 -4 31 -13 31 -21 0
-9 11 -14 31 -14 22 0 32 -5 36 -20 3 -11 14 -20 25 -20 17 0 64 -28 96 -57 7
-7 24 -13 38 -13 14 0 24 -6 24 -15 0 -8 14 -17 35 -21 20 -3 35 -12 35 -20 0
-8 8 -14 19 -14 10 0 24 -7 31 -15 7 -8 18 -15 25 -15 6 0 22 -9 35 -20 13
-11 34 -20 47 -20 13 0 23 -6 23 -15 0 -8 14 -17 35 -21 20 -3 35 -12 35 -20
0 -8 8 -14 18 -14 11 0 27 -9 37 -20 10 -11 26 -20 37 -20 10 0 18 -7 18 -15
0 -8 14 -17 35 -21 20 -3 35 -12 35 -20 0 -9 11 -14 30 -14 18 0 33 -6 36 -15
4 -8 11 -15 18 -15 6 0 22 -9 36 -20 14 -11 33 -20 43 -20 9 0 17 -6 17 -14 0
-8 14 -17 31 -21 17 -4 33 -13 36 -21 3 -8 18 -14 34 -14 19 0 29 -5 29 -15 0
-8 8 -15 18 -15 11 0 27 -9 37 -20 10 -11 28 -20 40 -20 14 0 25 -8 28 -20 4
-15 14 -20 36 -20 20 0 31 -5 31 -14 0 -8 14 -17 31 -21 17 -4 33 -13 36 -21
3 -8 13 -14 23 -14 10 0 25 -7 34 -15 8 -8 19 -15 24 -15 5 0 19 -9 32 -20 13
-11 32 -20 42 -20 10 0 21 -6 24 -14 3 -8 18 -18 34 -21 16 -3 31 -13 34 -21
3 -8 14 -14 25 -14 11 0 26 -6 33 -14 8 -7 23 -16 35 -20 12 -4 24 -13 27 -21
3 -8 16 -15 30 -15 15 0 25 -7 29 -20 4 -14 14 -20 35 -20 16 0 32 -6 35 -14
3 -8 19 -17 36 -21 17 -4 31 -13 31 -21 0 -8 9 -14 20 -14 13 0 24 -10 30 -26
13 -33 14 -31 -20 -43 -17 -5 -30 -14 -30 -20 0 -5 -13 -12 -29 -16 -16 -3
-32 -13 -35 -21 -3 -8 -16 -14 -29 -14 -13 0 -32 -9 -42 -20 -10 -11 -24 -20
-32 -20 -7 0 -13 -7 -13 -15 0 -10 -10 -15 -29 -15 -21 0 -32 -6 -36 -20 -4
-14 -15 -20 -36 -20 -18 0 -29 -5 -29 -14 0 -15 -21 -26 -51 -26 -10 0 -19 -7
-19 -15 0 -8 -9 -15 -20 -15 -11 0 -23 -6 -26 -14 -3 -8 -19 -18 -36 -21 -16
-4 -32 -13 -35 -21 -3 -8 -18 -14 -34 -14 -19 0 -29 -5 -29 -15 0 -8 -11 -17
-25 -21 -13 -3 -29 -12 -36 -20 -6 -8 -20 -14 -30 -14 -11 0 -19 -6 -19 -14 0
-8 -15 -17 -35 -20 -21 -4 -35 -13 -35 -21 0 -10 -10 -15 -30 -15 -19 0 -33
-7 -40 -20 -6 -11 -20 -20 -30 -20 -11 0 -20 -5 -20 -11 0 -5 -13 -15 -29 -20
-16 -6 -32 -17 -35 -25 -3 -8 -17 -14 -31 -14 -14 0 -28 -7 -31 -15 -3 -8 -21
-17 -40 -21 -19 -3 -34 -12 -34 -20 0 -8 -7 -14 -16 -14 -9 0 -27 -9 -41 -20
-14 -11 -31 -20 -38 -20 -7 0 -15 -7 -19 -15 -3 -8 -17 -15 -31 -15 -14 0 -28
-6 -31 -14 -3 -8 -18 -18 -34 -21 -16 -3 -31 -13 -34 -21 -3 -8 -14 -14 -24
-14 -10 0 -27 -9 -37 -20 -10 -11 -26 -20 -37 -20 -10 0 -18 -6 -18 -14 0 -8
-15 -17 -35 -20 -21 -4 -35 -13 -35 -21 0 -9 -9 -15 -22 -15 -12 0 -29 -6 -37
-14 -9 -8 -40 -26 -68 -41 -29 -15 -53 -31 -53 -36 0 -4 -16 -11 -35 -15 -20
-3 -35 -12 -35 -20 0 -8 -10 -14 -23 -14 -13 0 -32 -9 -42 -20 -10 -11 -24
-20 -30 -20 -7 0 -15 -7 -19 -15 -3 -8 -16 -15 -30 -15 -16 0 -27 -7 -31 -20
-4 -14 -15 -20 -36 -20 -18 0 -29 -5 -29 -14 0 -15 -21 -26 -50 -26 -10 0 -20
-7 -24 -15 -3 -8 -15 -15 -26 -15 -11 0 -20 -7 -20 -15 0 -8 -9 -15 -20 -15
-11 0 -29 -9 -40 -20 -11 -11 -31 -20 -45 -20 -15 0 -25 -6 -25 -15 0 -8 -11
-17 -25 -21 -13 -3 -29 -12 -36 -20 -6 -8 -20 -14 -30 -14 -11 0 -19 -6 -19
-14 0 -8 -15 -17 -34 -20 -19 -4 -37 -13 -40 -21 -3 -8 -17 -15 -30 -15 -15 0
-30 -8 -36 -20 -6 -11 -20 -20 -31 -20 -11 0 -22 -7 -25 -15 -4 -8 -12 -15
-20 -15 -8 0 -22 -9 -31 -20 -10 -11 -30 -20 -45 -20 -17 0 -28 -5 -28 -14 0
-8 -15 -17 -35 -20 -21 -4 -35 -13 -35 -21 0 -8 -7 -15 -16 -15 -9 0 -27 -9
-41 -20 -14 -11 -31 -20 -38 -20 -7 0 -15 -7 -19 -15 -3 -8 -17 -15 -31 -15
-14 0 -28 -7 -31 -15 -3 -8 -21 -17 -40 -21 -19 -3 -34 -12 -34 -20 0 -8 -8
-14 -18 -14 -11 0 -27 -9 -37 -20 -10 -11 -26 -20 -37 -20 -10 0 -18 -6 -18
-14 0 -8 -15 -17 -35 -20 -21 -4 -35 -13 -35 -21 0 -9 -10 -15 -24 -15 -14 0
-27 -4 -31 -9 -8 -13 -95 -61 -111 -61 -8 0 -14 -6 -14 -14 0 -8 -15 -17 -35
-20 -21 -4 -35 -13 -35 -21 0 -8 -8 -15 -18 -15 -11 0 -29 -9 -42 -20 -13 -11
-29 -20 -35 -20 -7 0 -15 -7 -19 -15 -3 -8 -16 -15 -30 -15 -16 0 -27 -7 -31
-20 -5 -15 -15 -20 -40 -20 -24 0 -34 -5 -38 -20 -3 -13 -14 -20 -30 -20 -14
0 -27 -7 -31 -15 -3 -8 -15 -15 -26 -15 -11 0 -20 -4 -20 -10 0 -5 -16 -16
-35 -24 -19 -8 -35 -20 -35 -25 0 -6 -13 -11 -30 -11 -18 0 -30 -5 -30 -13 0
-7 -27 -25 -60 -40 -33 -16 -60 -32 -60 -37 0 -4 -13 -11 -29 -15 -16 -3 -32
-13 -35 -21 -3 -8 -17 -14 -30 -14 -15 0 -30 -8 -36 -20 -6 -11 -17 -20 -25
-20 -13 0 -15 245 -15 1954 0 1293 -3 1957 -10 1961 -6 4 -10 178 -10 490 l0
483 38 -9 c20 -5 40 -9 45 -9z m4272 -139 c3 -16 13 -32 21 -35 8 -3 14 -17
14 -32 0 -17 6 -28 20 -31 11 -3 20 -14 20 -24 0 -11 6 -22 14 -25 8 -3 18
-19 21 -35 4 -16 13 -29 21 -29 9 0 14 -11 14 -35 0 -25 4 -35 15 -35 9 0 18
-13 22 -31 3 -17 12 -33 19 -36 8 -3 14 -13 14 -23 0 -10 6 -20 14 -23 8 -3
17 -19 21 -36 4 -17 13 -31 21 -31 9 0 14 -11 14 -30 0 -16 6 -33 13 -37 21
-14 57 -71 57 -91 0 -11 9 -22 20 -25 15 -4 20 -14 20 -36 0 -20 5 -31 14 -31
8 0 17 -14 21 -31 4 -17 13 -33 21 -36 8 -3 14 -12 14 -20 0 -8 9 -26 20 -40
11 -14 20 -31 20 -38 0 -7 7 -15 15 -19 8 -3 15 -17 15 -31 0 -14 6 -28 14
-31 8 -3 18 -18 21 -34 3 -16 13 -31 21 -34 8 -3 14 -15 14 -26 0 -11 6 -20
14 -20 8 0 17 -14 21 -31 4 -17 13 -33 21 -36 8 -3 14 -19 14 -35 0 -21 6 -31
20 -35 12 -3 20 -14 20 -27 0 -12 9 -29 20 -39 11 -9 20 -23 20 -31 0 -8 7
-16 15 -20 8 -3 15 -16 15 -30 0 -13 6 -26 14 -29 8 -3 17 -19 21 -35 3 -17
13 -33 21 -36 8 -3 14 -11 14 -18 0 -7 9 -24 20 -38 11 -14 20 -33 20 -42 0
-10 7 -18 15 -18 10 0 15 -10 15 -30 0 -19 5 -30 14 -30 8 0 17 -15 20 -35 4
-21 13 -35 21 -35 8 0 15 -8 15 -18 0 -11 9 -27 20 -37 11 -10 20 -26 20 -37
0 -10 6 -18 14 -18 8 0 17 -15 20 -34 4 -19 13 -37 21 -40 8 -3 15 -14 15 -25
0 -11 6 -26 13 -33 24 -25 49 -70 42 -76 -8 -9 -681 -15 -712 -7 -13 3 -23 12
-23 19 0 8 -7 16 -15 20 -11 4 -15 21 -15 67 0 46 -5 67 -20 86 -15 20 -20 41
-20 89 0 46 -4 65 -15 72 -10 5 -17 31 -22 78 -3 38 -12 78 -19 89 -8 11 -14
42 -14 70 0 29 -6 60 -15 72 -8 12 -18 50 -22 85 -3 35 -11 66 -16 70 -6 3
-13 40 -16 81 -4 41 -12 81 -20 90 -7 9 -15 45 -18 79 -3 35 -11 66 -16 70 -6
3 -13 35 -15 70 -2 37 -11 70 -20 80 -9 11 -17 46 -20 93 -3 54 -8 75 -18 75
-11 0 -14 17 -14 66 0 51 -5 72 -20 91 -15 20 -20 41 -20 89 0 46 -4 65 -15
72 -10 5 -18 31 -22 77 -3 39 -12 76 -20 83 -19 19 -18 122 1 122 8 0 17 -13
21 -29z m-4850 -4248 c-7 -19 -55 -16 -55 2 0 8 -7 15 -15 15 -8 0 -15 6 -15
14 0 8 -9 18 -20 21 -11 3 -20 13 -20 21 0 8 -6 14 -14 14 -8 0 -16 7 -20 15
-3 8 -12 15 -21 15 -8 0 -15 9 -15 20 0 13 -7 20 -20 20 -13 0 -20 7 -20 20 0
13 -7 20 -20 20 -11 0 -20 4 -20 9 0 14 -45 61 -59 61 -6 0 -11 7 -11 15 0 8
-4 15 -10 15 -11 0 -60 47 -60 58 0 4 -8 12 -18 17 -53 29 -82 51 -82 63 0 6
-4 12 -10 12 -12 0 -60 48 -60 60 0 6 -4 10 -10 10 -5 0 -41 32 -79 70 -38 39
-74 70 -80 70 -6 0 -11 7 -11 15 0 8 -6 15 -14 15 -8 0 -18 9 -21 20 -3 11
-13 20 -21 20 -8 0 -14 7 -14 15 0 8 -7 15 -16 15 -9 0 -18 9 -21 20 -3 11
-12 20 -20 20 -8 0 -17 9 -20 20 -3 11 -10 20 -15 20 -5 0 -41 32 -80 70 -39
39 -75 70 -79 70 -4 0 -39 31 -77 68 -37 38 -76 71 -85 75 -9 3 -17 13 -17 22
0 8 -7 15 -15 15 -8 0 -15 6 -15 14 0 8 -9 18 -20 21 -11 3 -20 13 -20 21 0 8
-5 14 -10 14 -6 0 -33 23 -60 50 -27 28 -54 50 -59 50 -5 0 -11 9 -14 20 -3
11 -12 20 -21 20 -9 0 -16 6 -16 14 0 7 -9 16 -20 19 -11 3 -20 12 -20 21 0 9
-4 16 -10 16 -12 0 -60 48 -60 60 0 6 -6 10 -13 10 -7 0 -18 9 -25 20 -7 11
-19 20 -27 20 -8 0 -20 9 -27 20 -7 11 -18 20 -25 20 -7 0 -13 6 -13 14 0 8
-9 18 -20 21 -11 3 -20 13 -20 21 0 8 -6 14 -14 14 -8 0 -16 7 -20 15 -3 8
-12 15 -21 15 -8 0 -15 7 -15 16 0 9 -9 18 -20 21 -11 3 -20 12 -20 19 0 8 -7
14 -15 14 -8 0 -15 7 -15 16 0 9 -9 18 -20 21 -11 3 -20 11 -20 18 0 8 -9 17
-20 20 -11 3 -20 13 -20 21 0 8 -7 14 -15 14 -8 0 -15 7 -15 15 0 8 -7 15 -16
15 -9 0 -18 9 -21 20 -3 11 -11 20 -18 20 -7 0 -15 13 -17 29 -3 23 4 36 38
70 23 22 47 41 53 41 6 0 11 7 11 16 0 9 9 18 20 21 11 3 20 10 20 15 0 15 43
58 58 58 6 0 12 7 12 15 0 8 7 15 16 15 9 0 18 9 21 20 3 11 12 20 19 20 8 0
14 7 14 15 0 8 7 15 15 15 9 0 18 7 21 15 3 8 14 17 25 20 10 4 19 13 19 21 0
8 6 14 14 14 8 0 18 9 21 20 3 11 13 20 21 20 8 0 14 7 14 15 0 9 12 18 30 22
17 3 30 10 30 15 0 12 87 98 100 98 5 0 10 7 10 15 0 8 7 15 16 15 9 0 18 9
21 20 3 11 11 20 18 20 7 0 15 7 19 15 3 8 12 15 21 15 8 0 15 6 15 14 0 8 9
18 20 21 11 3 20 13 20 21 0 8 7 14 15 14 8 0 15 7 15 16 0 9 9 18 20 21 11 3
20 12 20 19 0 8 5 14 11 14 6 0 35 25 64 55 29 30 58 55 63 55 6 0 35 25 65
55 30 30 59 55 65 55 7 0 12 7 12 15 0 8 6 15 14 15 7 0 16 9 19 20 3 11 12
20 21 20 9 0 16 5 16 11 0 14 47 59 61 59 5 0 9 7 9 15 0 8 7 15 16 15 9 0 18
9 21 20 3 11 10 20 17 20 6 0 27 16 46 35 19 19 38 35 42 35 4 0 8 7 8 15 0 8
6 15 14 15 8 0 18 9 21 20 3 11 15 20 26 20 10 0 24 9 31 20 7 11 18 20 25 20
7 0 13 7 13 16 0 9 9 18 20 21 11 3 20 12 20 19 0 8 7 14 16 14 9 0 18 9 21
20 3 11 10 20 15 20 5 0 31 23 57 50 26 28 53 50 60 50 6 0 11 6 11 14 0 8 9
18 20 21 11 3 20 13 20 21 0 8 7 14 15 14 8 0 15 7 15 15 0 9 8 19 17 22 9 4
41 31 70 60 30 29 57 53 61 53 5 0 31 22 59 50 28 27 62 54 75 59 l23 8 3
-1966 c1 -1081 0 -1972 -3 -1978z m5988 1721 c35 -6 54 -34 23 -34 -8 0 -17
-14 -21 -31 -4 -17 -13 -33 -21 -36 -8 -3 -14 -13 -14 -23 0 -10 -6 -23 -14
-29 -8 -7 -17 -23 -20 -36 -4 -14 -13 -25 -21 -25 -10 0 -15 -11 -15 -35 0
-28 -4 -35 -20 -35 -15 0 -20 -7 -20 -25 0 -14 -9 -35 -20 -47 -12 -13 -27
-30 -35 -39 -8 -9 -15 -26 -15 -38 0 -12 -6 -24 -14 -27 -8 -3 -18 -19 -21
-35 -4 -16 -10 -29 -15 -29 -5 0 -21 -26 -36 -57 -14 -32 -33 -62 -40 -66 -8
-4 -14 -19 -14 -33 0 -13 -6 -27 -14 -30 -8 -3 -18 -19 -21 -35 -4 -16 -13
-29 -21 -29 -8 0 -14 -9 -14 -20 0 -11 -9 -29 -20 -40 -11 -11 -20 -26 -20
-34 0 -8 -6 -16 -14 -19 -8 -3 -17 -20 -21 -37 -4 -17 -13 -34 -21 -37 -8 -3
-14 -13 -14 -23 0 -10 -7 -25 -15 -34 -8 -8 -15 -19 -15 -24 0 -5 -9 -19 -20
-32 -11 -13 -20 -31 -20 -42 0 -10 -7 -18 -15 -18 -8 0 -17 -14 -21 -35 -3
-20 -12 -35 -20 -35 -8 0 -14 -9 -14 -19 0 -11 -5 -23 -10 -26 -6 -4 -17 -22
-25 -41 -8 -19 -19 -34 -24 -34 -6 0 -11 -13 -11 -29 0 -20 -6 -30 -20 -34
-15 -4 -20 -14 -20 -36 0 -21 -5 -31 -15 -31 -8 0 -15 -6 -15 -14 0 -7 -9 -25
-20 -39 -11 -14 -20 -32 -20 -41 0 -9 -6 -16 -14 -16 -8 0 -17 -15 -20 -34 -4
-19 -13 -37 -21 -40 -8 -3 -15 -16 -15 -28 0 -13 -8 -31 -17 -40 -31 -28 -53
-61 -53 -80 0 -10 -7 -21 -15 -24 -8 -3 -17 -21 -21 -40 -3 -19 -12 -34 -20
-34 -8 0 -14 -9 -14 -20 0 -11 -9 -29 -20 -40 -11 -11 -20 -27 -20 -35 0 -8
-7 -15 -15 -15 -8 0 -17 -14 -21 -35 -3 -20 -12 -35 -20 -35 -9 0 -14 -11 -14
-30 0 -20 -5 -30 -15 -30 -11 0 -15 11 -15 36 0 19 7 42 15 50 10 11 15 36 15
85 0 51 3 69 14 69 9 0 15 21 19 72 4 49 11 74 22 80 11 7 15 26 15 72 0 48 4
67 20 84 16 17 20 35 20 86 0 44 4 65 13 69 9 3 16 30 20 71 4 37 13 76 22 89
9 12 15 43 15 72 0 28 6 59 14 70 7 11 16 49 19 84 4 44 10 67 21 73 12 7 16
25 16 72 0 42 5 67 14 75 7 6 16 39 18 76 3 36 12 72 19 81 7 9 16 48 20 86 3
39 11 73 16 77 6 3 13 35 17 70 3 36 13 72 21 81 10 11 15 37 15 74 0 43 5 62
20 78 16 17 20 36 20 85 0 47 4 65 15 69 8 4 15 12 15 19 0 7 6 16 13 18 18 8
655 8 700 1z m-1347 -439 c11 -28 -6 -125 -22 -125 -11 0 -14 -16 -14 -70 0
-54 -4 -71 -17 -78 -13 -8 -18 -27 -21 -78 -2 -38 -10 -76 -17 -84 -7 -8 -15
-44 -19 -80 -4 -41 -11 -67 -21 -73 -11 -6 -15 -26 -15 -72 0 -43 -4 -67 -14
-72 -8 -5 -16 -35 -19 -77 -4 -38 -13 -79 -22 -92 -8 -13 -15 -45 -15 -71 0
-27 -6 -57 -14 -68 -7 -11 -16 -48 -19 -83 -4 -35 -14 -70 -22 -78 -10 -10
-15 -35 -15 -75 0 -44 -4 -61 -15 -65 -11 -4 -15 -21 -15 -58 0 -32 -7 -65
-20 -89 -13 -25 -20 -56 -20 -95 0 -45 -4 -61 -20 -75 -16 -13 -20 -29 -20
-81 0 -45 -4 -65 -14 -69 -9 -4 -15 -28 -18 -71 -2 -42 -10 -71 -21 -84 -11
-12 -17 -36 -17 -68 0 -27 -6 -60 -13 -74 -8 -15 -17 -54 -20 -89 -4 -34 -14
-72 -22 -84 -8 -12 -15 -43 -15 -70 0 -26 -6 -58 -14 -70 -7 -12 -16 -51 -20
-87 -4 -41 -11 -67 -21 -73 -11 -6 -15 -26 -15 -73 0 -48 -4 -66 -15 -70 -10
-4 -15 -21 -15 -53 0 -84 -5 -91 -65 -91 -35 0 -55 5 -58 14 -3 7 -28 16 -57
19 -29 4 -60 13 -70 22 -9 8 -33 15 -53 15 -19 0 -42 6 -49 14 -8 7 -37 17
-65 21 -30 4 -54 13 -57 21 -3 9 -21 14 -48 14 -31 0 -48 6 -61 20 -12 14 -29
20 -61 20 -28 0 -46 5 -49 14 -3 8 -29 16 -65 20 -39 4 -62 12 -66 21 -4 10
-20 15 -51 15 -30 0 -47 5 -51 14 -3 8 -27 17 -56 20 -28 4 -57 14 -65 22 -8
8 -33 14 -58 14 -29 0 -45 5 -49 15 -3 10 -19 15 -43 15 -21 0 -51 9 -68 20
-16 11 -47 20 -67 20 -20 0 -43 6 -50 14 -8 7 -38 17 -66 21 -35 4 -52 12 -52
21 0 10 -13 14 -48 14 -35 0 -52 5 -65 20 -12 14 -29 20 -61 20 -28 0 -46 5
-49 14 -3 8 -29 16 -65 20 -39 4 -62 12 -66 21 -4 11 -21 15 -56 15 -36 0 -50
4 -50 14 0 9 -18 16 -51 20 -28 4 -58 14 -66 22 -8 7 -32 14 -52 14 -22 0 -44
6 -51 15 -7 9 -29 15 -51 15 -21 0 -45 7 -53 16 -9 9 -41 19 -72 23 -31 5 -59
13 -62 18 -4 6 -31 14 -59 18 -36 5 -53 12 -53 21 0 10 -14 14 -55 14 -40 0
-55 4 -55 14 0 18 -22 26 -70 26 -24 0 -40 5 -43 14 -4 9 -23 16 -49 18 -31 2
-44 8 -46 21 -2 10 3 17 13 17 8 0 18 6 21 14 3 8 19 18 36 21 16 4 32 13 35
21 3 8 18 14 34 14 17 0 29 5 29 13 0 7 27 25 60 40 33 16 60 32 60 37 0 4 13
11 29 15 16 3 32 13 35 21 3 8 17 14 32 14 17 0 28 6 31 20 3 12 14 20 28 20
12 0 30 9 40 20 10 11 24 20 30 20 7 0 15 7 19 15 3 9 18 15 35 15 16 0 31 6
34 14 3 8 19 17 36 21 17 4 31 13 31 21 0 8 7 14 16 14 9 0 27 9 41 20 14 11
31 20 38 20 7 0 15 7 19 15 3 9 18 15 36 15 19 0 30 5 30 14 0 8 15 17 35 20
21 4 35 13 35 21 0 8 8 15 18 15 11 0 27 9 37 20 10 11 26 20 37 20 10 0 18 6
18 14 0 8 15 17 35 20 19 4 35 13 35 20 0 8 14 16 30 20 17 3 36 10 43 16 50
42 63 50 84 50 13 0 23 6 23 15 0 8 14 17 35 21 20 3 35 12 35 20 0 8 8 14 18
14 11 0 29 9 42 20 13 11 29 20 35 20 7 0 15 7 19 15 3 8 17 15 32 15 17 0 28
6 31 20 4 14 14 20 34 20 18 0 32 7 39 20 6 11 20 20 30 20 11 0 20 4 20 9 0
5 14 14 30 20 17 5 30 14 30 20 0 5 14 12 31 16 17 4 33 13 36 21 3 8 18 14
34 14 17 0 32 6 35 15 4 9 31 27 60 41 30 14 54 29 54 34 0 5 13 11 29 15 16
3 32 13 35 21 3 8 17 14 32 14 17 0 28 6 31 20 3 12 14 20 28 20 12 0 30 9 40
20 10 11 26 20 37 20 10 0 18 7 18 15 0 10 10 15 29 15 16 0 31 6 34 14 3 8
19 17 36 21 17 4 31 13 31 21 0 8 8 14 18 14 9 0 28 9 42 20 14 11 30 20 36
20 7 0 14 7 18 15 3 9 18 15 36 15 19 0 30 5 30 14 0 8 15 17 35 20 21 4 35
13 35 21 0 8 8 15 18 15 11 0 27 9 37 20 10 11 26 20 37 20 10 0 18 7 18 15 0
8 14 17 35 21 19 3 35 12 35 19 0 7 15 16 34 19 19 4 36 10 38 14 7 15 68 52
88 52 11 0 20 7 20 15 0 8 14 17 35 21 20 3 35 12 35 20 0 8 8 14 19 14 10 0
30 9 44 20 14 11 30 20 36 20 6 0 11 7 11 15 0 10 10 15 31 15 22 0 32 5 36
20 4 14 14 20 34 20 17 0 32 6 35 14 3 8 18 20 32 26 47 19 82 41 82 50 0 5
16 12 35 16 20 3 35 12 35 20 0 19 29 18 36 -1z m-6116 -640 c0 -8 7 -15 15
-15 9 0 18 -7 21 -15 3 -8 14 -17 24 -20 22 -7 110 -92 110 -105 0 -6 5 -10
10 -10 6 0 25 -16 43 -35 17 -19 38 -35 44 -35 7 0 13 -7 13 -16 0 -9 9 -18
20 -21 11 -3 20 -12 20 -19 0 -8 4 -14 9 -14 13 0 131 -116 131 -129 0 -6 7
-11 16 -11 9 0 18 -9 21 -20 3 -11 10 -20 16 -20 5 0 32 -22 59 -50 27 -27 53
-50 58 -50 6 0 10 -6 10 -14 0 -8 10 -18 22 -22 12 -3 52 -37 88 -74 37 -36
74 -69 83 -73 10 -4 17 -13 17 -22 0 -8 7 -15 15 -15 8 0 15 -6 15 -14 0 -8 9
-18 20 -21 11 -3 20 -13 20 -21 0 -8 6 -14 13 -14 6 0 27 -16 44 -35 18 -19
37 -35 43 -35 5 0 10 -7 10 -15 0 -8 7 -15 16 -15 9 0 18 -9 21 -20 3 -11 12
-20 19 -20 8 0 14 -7 14 -15 0 -8 7 -15 16 -15 9 0 18 -9 21 -20 3 -11 9 -20
14 -20 11 0 59 -49 59 -60 0 -6 6 -10 13 -10 7 0 18 -9 25 -20 7 -11 19 -20
26 -20 8 0 46 -31 84 -70 38 -38 74 -70 81 -70 6 0 11 -6 11 -14 0 -8 9 -18
20 -21 11 -3 20 -13 20 -21 0 -8 7 -14 15 -14 10 0 15 -10 15 -34 0 -21 -6
-36 -15 -40 -8 -3 -15 -14 -15 -25 0 -11 -6 -26 -14 -33 -7 -8 -16 -23 -20
-35 -4 -12 -13 -27 -21 -33 -8 -7 -15 -20 -15 -30 0 -10 -6 -20 -14 -23 -8 -3
-17 -19 -21 -35 -3 -17 -13 -33 -21 -36 -8 -3 -14 -18 -14 -35 0 -16 -6 -31
-14 -34 -8 -3 -17 -19 -21 -36 -4 -17 -13 -31 -21 -31 -8 0 -14 -9 -14 -20 0
-11 -9 -28 -20 -37 -11 -10 -20 -26 -20 -36 0 -9 -7 -20 -15 -23 -8 -4 -15
-17 -15 -30 0 -25 -7 -30 -45 -36 -15 -2 -26 10 -47 51 -15 30 -32 57 -37 60
-5 4 -12 18 -16 33 -4 15 -13 29 -21 32 -8 3 -14 16 -14 28 0 13 -9 31 -20 41
-11 9 -20 23 -20 31 0 7 -7 19 -15 26 -8 7 -15 21 -15 32 0 11 -9 22 -20 25
-14 4 -20 14 -20 34 0 19 -5 29 -15 29 -9 0 -18 13 -22 31 -3 17 -12 33 -19
36 -8 3 -14 14 -14 24 0 11 -6 22 -14 25 -8 3 -18 19 -21 35 -4 16 -13 29 -21
29 -9 0 -14 11 -14 30 0 18 -6 33 -15 36 -8 3 -17 15 -21 27 -4 12 -13 27 -20
35 -8 7 -14 22 -14 33 0 10 -6 19 -14 19 -8 0 -17 15 -20 35 -4 21 -13 35 -21
35 -8 0 -15 9 -15 19 0 30 -11 51 -26 51 -8 0 -14 7 -14 16 0 9 -9 27 -20 41
-11 14 -20 31 -20 38 0 7 -7 15 -15 19 -8 3 -15 17 -15 31 0 14 -6 28 -14 31
-8 3 -18 19 -21 36 -4 16 -13 32 -21 35 -8 3 -14 12 -14 20 0 8 -9 26 -20 40
-11 14 -20 31 -20 38 0 7 -7 15 -15 19 -8 3 -15 17 -15 30 0 15 -8 30 -20 36
-11 6 -20 20 -20 31 0 11 -7 22 -15 25 -8 4 -15 17 -15 30 0 15 -6 24 -15 24
-9 0 -18 13 -22 31 -3 17 -12 33 -19 36 -7 3 -16 20 -20 39 -3 19 -12 34 -20
34 -8 0 -14 7 -14 16 0 9 -9 27 -20 41 -11 14 -20 31 -20 38 0 7 -7 15 -15 19
-8 3 -15 16 -15 30 0 13 -6 26 -14 29 -8 3 -17 19 -21 36 -4 17 -13 31 -21 31
-8 0 -14 7 -14 16 0 9 -9 27 -20 41 -11 14 -20 34 -20 44 0 11 -7 19 -15 19
-10 0 -15 10 -15 29 0 20 -6 30 -20 34 -11 3 -20 12 -20 21 0 9 8 16 20 16 11
0 20 -7 20 -15z m2056 -1711 c7 -8 29 -14 57 -14 37 0 47 -4 52 -20 5 -17 15
-20 61 -20 39 0 54 -4 54 -14 0 -9 18 -16 51 -20 28 -4 58 -14 66 -22 8 -7 31
-14 51 -14 21 0 46 -6 57 -14 11 -7 42 -16 68 -20 27 -4 51 -14 54 -22 3 -9
21 -14 53 -14 31 0 50 -5 53 -14 3 -7 26 -16 52 -19 25 -4 53 -14 61 -22 9 -9
33 -15 59 -15 26 0 47 -5 52 -14 4 -7 33 -16 63 -19 31 -4 60 -13 66 -22 7
-10 28 -15 59 -15 38 0 48 -4 52 -20 5 -17 14 -20 59 -20 39 0 54 -4 54 -14 0
-9 18 -16 51 -20 28 -4 58 -14 66 -22 8 -7 32 -14 53 -14 23 0 40 -5 43 -14 3
-8 28 -15 63 -19 36 -4 63 -12 70 -22 7 -10 27 -15 57 -15 29 0 47 -5 50 -14
3 -8 28 -16 60 -20 34 -5 57 -13 61 -22 4 -9 20 -14 50 -14 46 0 69 -16 45
-31 -18 -11 -2319 -12 -2337 -1 -16 11 -4 72 14 72 8 0 14 9 14 20 0 17 31 73
60 107 5 7 10 17 10 22 0 17 43 95 57 104 7 4 13 19 13 33 0 13 6 27 14 30 8
3 18 18 21 34 3 16 13 31 21 34 8 3 14 18 14 35 0 20 6 30 20 34 11 3 20 14
20 25 0 11 7 25 15 32 8 7 15 18 15 24 0 37 80 45 106 10z"/>
</g>
</svg>
