<?xml version="1.0" standalone="no"?>
<!DOCTYPE svg PUBLIC "-//W3C//DTD SVG 20010904//EN"
 "http://www.w3.org/TR/2001/REC-SVG-20010904/DTD/svg10.dtd">
<svg version="1.0" xmlns="http://www.w3.org/2000/svg"
 width="396.000000pt" height="403.000000pt" viewBox="0 0 396.000000 403.000000"
 preserveAspectRatio="xMidYMid meet">

<g transform="translate(0.000000,403.000000) scale(0.100000,-0.100000)"
fill="#000000" stroke="none">
<path d="M1770 3919 c-422 -47 -801 -227 -1109 -524 -179 -173 -307 -350 -411
-567 -292 -613 -255 -1325 100 -1913 210 -347 550 -635 927 -784 136 -54 202
-53 261 2 53 49 56 67 54 277 -2 107 -5 203 -8 213 -11 36 -55 44 -151 30
-109 -17 -220 -5 -296 31 -78 37 -129 96 -182 211 -49 107 -49 108 9 28 41
-58 109 -112 183 -145 71 -33 240 -33 337 1 78 27 116 58 116 94 0 46 32 125
73 178 75 99 47 148 -97 168 -382 53 -599 238 -672 573 -24 111 -29 326 -10
418 19 89 68 195 125 270 52 68 56 84 36 140 -25 69 -30 202 -11 289 8 41 18
76 21 79 20 21 221 -62 346 -143 81 -53 90 -53 234 -21 131 29 312 40 452 27
71 -6 160 -19 198 -27 143 -32 153 -31 231 19 119 77 278 147 332 147 26 0 42
-54 49 -170 5 -78 2 -111 -15 -179 -24 -93 -24 -94 39 -173 85 -108 129 -251
129 -419 0 -286 -81 -510 -233 -644 -100 -89 -308 -168 -497 -190 -60 -7 -80
-18 -99 -53 -16 -29 -6 -57 36 -109 19 -22 44 -67 56 -100 20 -54 22 -81 27
-408 4 -255 8 -356 18 -372 24 -43 80 -76 135 -81 42 -3 70 3 142 31 793 306
1307 1132 1237 1986 -52 625 -365 1166 -872 1506 -353 236 -821 351 -1240 304z
m378 -160 c684 -75 1260 -543 1481 -1205 157 -468 126 -957 -89 -1399 -166
-342 -442 -628 -770 -799 -94 -49 -229 -106 -250 -106 -5 0 -10 150 -12 333
-4 319 -5 335 -28 402 -13 39 -24 74 -25 79 0 4 41 18 90 31 458 116 689 455
672 985 -4 107 -10 164 -26 218 -24 83 -75 188 -118 245 -29 39 -29 39 -16
100 25 119 15 259 -29 400 -30 98 -50 111 -158 104 -108 -6 -222 -47 -358
-127 l-100 -59 -128 26 c-111 22 -154 26 -314 26 -160 0 -203 -4 -313 -26
l-129 -26 -90 54 c-146 88 -281 134 -395 135 -86 0 -105 -19 -138 -135 -34
-118 -43 -264 -22 -360 l16 -70 -30 -40 c-41 -54 -104 -187 -124 -260 -25 -93
-31 -308 -11 -442 60 -408 279 -653 675 -754 41 -10 76 -20 77 -22 2 -1 -7
-31 -19 -66 -20 -59 -26 -65 -62 -78 -26 -10 -65 -13 -111 -10 -88 5 -149 37
-200 105 -19 26 -56 76 -83 112 -92 124 -242 196 -360 172 -131 -27 -149 -138
-36 -227 99 -79 136 -125 195 -248 90 -186 166 -258 326 -313 65 -22 97 -27
187 -28 l107 0 2 -88 c1 -49 2 -100 2 -115 1 -24 -3 -28 -24 -26 -35 2 -197
73 -294 129 -136 78 -234 154 -357 274 -264 260 -435 574 -508 936 -130 643
99 1328 583 1744 373 320 845 471 1314 419z"/>
</g>
</svg>
