<?xml version="1.0" standalone="no"?>
<!DOCTYPE svg PUBLIC "-//W3C//DTD SVG 20010904//EN"
 "http://www.w3.org/TR/2001/REC-SVG-20010904/DTD/svg10.dtd">
<svg version="1.0" xmlns="http://www.w3.org/2000/svg"
 width="1000.000000pt" height="1000.000000pt" viewBox="0 0 1000.000000 1000.000000"
 preserveAspectRatio="xMidYMid meet">

<g transform="translate(0.000000,1000.000000) scale(0.100000,-0.100000)"
fill="#000000" stroke="none">
<path d="M2349 8996 c-98 -21 -181 -89 -228 -186 l-26 -55 -3 -1312 -2 -1311
-153 -4 -153 -3 -75 -37 c-128 -63 -212 -167 -244 -299 -22 -96 -22 -2432 0
-2528 21 -87 59 -154 124 -218 97 -96 208 -132 413 -133 l87 0 3 -832 3 -833
26 -55 c29 -62 95 -132 149 -160 20 -10 62 -23 95 -29 83 -16 5187 -16 5270 0
33 6 75 19 95 29 54 28 120 98 149 160 l26 55 3 833 3 832 87 0 c134 1 226 16
297 50 74 35 159 115 197 186 59 110 58 69 58 1376 0 836 -3 1213 -11 1250
-29 138 -118 252 -248 316 l-75 37 -152 3 -153 4 -3 496 c-2 383 -6 502 -16
520 -7 12 -130 156 -274 320 -144 163 -496 565 -783 892 -287 327 -530 603
-541 612 -11 9 -39 21 -64 27 -69 16 -3807 13 -3881 -3z m3701 -1113 c0 -809
0 -817 21 -860 14 -29 35 -52 63 -68 l43 -25 711 0 712 0 -2 -397 -3 -398
-2595 0 -2595 0 -3 1270 c-1 699 0 1276 3 1283 3 9 378 12 1825 12 l1820 0 0
-817z m-2850 -2258 c351 -63 555 -231 636 -526 26 -94 24 -306 -4 -412 -53
-196 -183 -359 -357 -449 -183 -93 -369 -131 -623 -126 l-152 3 0 -417 0 -418
-270 0 -270 0 0 1159 0 1159 23 6 c28 7 306 35 397 40 161 9 527 -2 620 -19z
m1953 14 c313 -27 531 -102 722 -247 317 -241 449 -651 369 -1152 -31 -199
-116 -396 -233 -542 -173 -216 -416 -342 -789 -410 -198 -35 -777 -36 -994 -1
l-38 6 0 1152 0 1153 23 5 c31 8 327 36 412 40 179 8 418 6 528 -4z m2907
-229 l0 -220 -455 0 -455 0 0 -265 0 -265 425 0 425 0 0 -220 0 -220 -422 -2
-423 -3 -3 -467 -2 -468 -270 0 -270 0 0 1175 0 1175 725 0 725 0 0 -220z
m-465 -3265 l0 -760 -2595 0 -2595 0 -3 750 c-1 413 0 756 3 763 3 10 528 12
2597 10 l2593 -3 0 -760z"/>
<path d="M2775 5234 c-16 -3 -40 -7 -52 -9 l-23 -5 0 -344 0 -344 103 -6 c238
-16 406 56 483 206 23 43 28 70 32 144 6 126 -13 180 -87 255 -78 77 -144 100
-306 104 -66 2 -133 1 -150 -1z"/>
<path d="M4770 5222 l-35 -7 -3 -759 c-2 -601 0 -761 10 -768 21 -13 257 -9
348 6 421 69 634 389 598 896 -23 319 -192 535 -483 615 -64 18 -369 30 -435
17z"/>
</g>
</svg>
